<svg id="setting" xmlns="http://www.w3.org/2000/svg" width="23.432" height="24.062" viewBox="0 0 23.432 24.062">
  <path id="Path_2482" data-name="Path 2482" d="M29.731,14.669l-2.212-1.729a8.433,8.433,0,0,0,.052-.908,8.708,8.708,0,0,0-.052-.908l2.214-1.73a1.083,1.083,0,0,0,.262-1.382l-2.3-3.979a1.085,1.085,0,0,0-1.33-.478L23.754,4.6a8.9,8.9,0,0,0-1.566-.909l-.4-2.768A1.065,1.065,0,0,0,20.729,0H16.117a1.063,1.063,0,0,0-1.062.913l-.4,2.778a9.228,9.228,0,0,0-1.564.91L10.476,3.551a1.066,1.066,0,0,0-1.32.47l-2.3,3.985a1.076,1.076,0,0,0,.261,1.388l2.212,1.728a8.76,8.76,0,0,0-.052.908c0,.276.017.569.05.908L7.11,14.671a1.085,1.085,0,0,0-.261,1.381l2.3,3.979a1.086,1.086,0,0,0,1.33.478l2.61-1.048a9.036,9.036,0,0,0,1.567.909l.4,2.767a1.065,1.065,0,0,0,1.063.923h4.612a1.063,1.063,0,0,0,1.062-.913l.4-2.777a9.229,9.229,0,0,0,1.564-.91l2.617,1.051a1.069,1.069,0,0,0,1.32-.47l2.312-4A1.084,1.084,0,0,0,29.731,14.669Zm-.607.882-2.388,4.028-2.87-1.153a.5.5,0,0,0-.487.064,8.306,8.306,0,0,1-1.838,1.067.5.5,0,0,0-.307.393l-.506,3.109-4.679-.053-.438-3.055a.5.5,0,0,0-.307-.393,7.988,7.988,0,0,1-1.834-1.064.5.5,0,0,0-.306-.1.491.491,0,0,0-.187.036L10.024,19.54l-2.3-3.979a.085.085,0,0,1,.007-.1l2.433-1.9a.5.5,0,0,0,.189-.457,8.458,8.458,0,0,1-.077-1.068,8.66,8.66,0,0,1,.077-1.068.5.5,0,0,0-.189-.457L7.719,8.512l2.388-4.028,2.87,1.153a.5.5,0,0,0,.488-.064A8.244,8.244,0,0,1,15.3,4.506a.5.5,0,0,0,.306-.393L16.117,1l4.68.054.437,3.056a.5.5,0,0,0,.307.393,7.958,7.958,0,0,1,1.834,1.064.5.5,0,0,0,.492.067l2.953-1.114,2.3,3.979a.083.083,0,0,1-.007.1l-2.433,1.9a.5.5,0,0,0-.188.457,8.527,8.527,0,0,1,.077,1.068A8.513,8.513,0,0,1,26.49,13.1a.5.5,0,0,0,.188.457l2.43,1.9A.079.079,0,0,1,29.124,15.551Z" transform="translate(-6.705)" fill="rgba(255,255,255,0.56)"/>
  <path id="Path_2483" data-name="Path 2483" d="M154.365,149.333a5.013,5.013,0,1,0,5.013,5.013A5.019,5.019,0,0,0,154.365,149.333Zm0,9.023a4.01,4.01,0,1,1,4.01-4.01A4.014,4.014,0,0,1,154.365,158.356Z" transform="translate(-142.648 -142.315)" fill="rgba(255,255,255,0.56)"/>
</svg>
